<?xml version="1.0" encoding="UTF-8"?>
<svg version="1.1" viewBox="0 0 90 90" xmlns="http://www.w3.org/2000/svg">
<g>
<g transform="translate(-103 -2187)">
<g transform="translate(-2 2103)">
<g transform="translate(105 84)">
<path d="m45 0c24.813 0 45 20.187 45 45s-20.187 45-45 45-45-20.187-45-45 20.187-45 45-45zm0 81.818c20.302 0 36.818-16.516 36.818-36.818 0-20.302-16.516-36.818-36.818-36.818s-36.818 16.517-36.818 36.818c0 20.302 16.516 36.818 36.818 36.818zm-0.5-62.818c3.0328 0 5.5 2.4684 5.5 5.5025 0 3.0313-2.4672 5.4975-5.5 5.4975s-5.5-2.4662-5.5-5.4975c0-3.0341 2.4672-5.5025 5.5-5.5025zm0.5 19c2.2091 0 4 1.8469 4 4.125v24.75c0 2.2781-1.7909 4.125-4 4.125s-4-1.8469-4-4.125v-24.75c0-2.2781 1.7909-4.125 4-4.125z"/>
</g>
</g>
</g>
</g>
</svg>
