<?xml version="1.0" encoding="UTF-8"?>
<svg version="1.1" viewBox="0 0 79 63" xmlns="http://www.w3.org/2000/svg">
<g>
<g transform="translate(-749 -2200)">
<g transform="translate(-2 2103)">
<g transform="translate(751 97)">
<path d="m38 24h37c2.2091 0 4 1.7909 4 4s-1.7909 4-4 4h-37c-2.2091 0-4-1.7909-4-4s1.7909-4 4-4zm-33-24h19c2.7614-5.0727e-16 5 2.2386 5 5v22c0 2.7614-2.2386 5-5 5h-19c-2.7614 0-5-2.2386-5-5v-22c-3.3818e-16 -2.7614 2.2386-5 5-5zm33 12h17c2.2091 0 4 1.7909 4 4s-1.7909 4-4 4h-17c-2.2091 0-4-1.7909-4-4s1.7909-4 4-4zm0-12h26c2.2091-4.0581e-16 4 1.7909 4 4s-1.7909 4-4 4h-26c-2.2091 0-4-1.7909-4-4s1.7909-4 4-4z"/>
<path d="m5 43h19c2.7614 0 5 2.2386 5 5v10c0 2.7614-2.2386 5-5 5h-19c-2.7614 0-5-2.2386-5-5v-10c-3.3818e-16 -2.7614 2.2386-5 5-5zm33 12h17c2.2091 0 4 1.7909 4 4s-1.7909 4-4 4h-17c-2.2091 0-4-1.7909-4-4s1.7909-4 4-4zm0-12h26c2.2091 0 4 1.7909 4 4s-1.7909 4-4 4h-26c-2.2091 0-4-1.7909-4-4s1.7909-4 4-4z"/>
</g>
</g>
</g>
</g>
</svg>
