<?xml version="1.0" encoding="UTF-8"?>
<svg version="1.1" viewBox="0 0 80 68" xmlns="http://www.w3.org/2000/svg">
<g>
<g transform="translate(-525 -2198)">
<g transform="translate(-2 2103)">
<path d="m579 155.74v-8.0187-23.094c0-2.7608 2.2385-4.999 5-4.999h14c2.7612 0 5 2.2382 5 4.999v23.094 8.0187 3.9812c-8.1e-5 0.015693 0 0.031413 0 0.04716 0 1.7871-1.0425 3.2345-2.3282 3.2345-0.70002 0-1.3279-0.42902-1.7548-1.1083-0.13738 0.017342-0.27655 0.026205-0.41722 0.026205l-7.4999-8.5839-7.4999 8.5839c-0.12337 0-0.24559-0.006817-0.36645-0.020192-0.43245 0.6758-1.0671 1.1023-1.7744 1.1023-1.303 0-2.3594-1.4474-2.3594-3.2345 0-0.015747 8.2e-5 -0.031467 2.46e-4 -0.04716l-2.46e-4 -3.9812zm-48.5-33.143h37c1.9329 0 3.4999 1.5661 3.4999 3.4983v0.87638c0 1.9321-1.567 3.4996-3.4999 3.4996h-37c-1.9329 0-3.5002-1.5674-3.5002-3.4996v-0.87638c0-1.9322 1.5673-3.4983 3.5002-3.4983zm0 27.592h37c1.9329 0 3.4999 1.5674 3.4999 3.5007v0.87523c0 1.9333-1.567 3.4995-3.4999 3.4995h-37c-1.9329 0-3.5002-1.5661-3.5002-3.4995v-0.87523c0-1.9333 1.5673-3.5007 3.5002-3.5007zm0-55.187h73c1.9329 0 3.5002 1.5674 3.5002 3.5008v0.87516c0 1.9322-1.5673 3.4996-3.5002 3.4996h-73c-1.9329 0-3.5002-1.5674-3.5002-3.4996v-0.87516c0-1.9334 1.5673-3.5008 3.5002-3.5008z"/>
</g>
</g>
</g>
</svg>
