<?xml version="1.0" encoding="UTF-8"?>
<svg version="1.1" viewBox="0 0 90 90" xmlns="http://www.w3.org/2000/svg">
<g>
<g transform="translate(-314 -2187)">
<g transform="translate(0 2103)">
<path d="m338.34 148.7c0.96525-9.1718 9.8479-16.355 20.663-16.355s19.698 7.1832 20.663 16.355h0.067259l1.1307 10.773c9.4708-6.8067 15.639-17.92 15.639-30.473 0-20.711-16.789-37.5-37.5-37.5-20.711 0-37.5 16.789-37.5 37.5 0 12.559 6.1733 23.675 15.651 30.481l1.1318-10.782h0.054196zm20.663-64.699c24.853 0 45 20.147 45 44.999 0 24.854-20.147 45.001-45 45.001s-45-20.147-45-45.001c0-24.852 20.147-44.999 45-44.999zm0.031096 23.438c4.6944 0 8.5002 3.8405 8.5002 8.5775 0 4.7376-3.8059 8.5781-8.5002 8.5781s-8.4998-3.8405-8.4998-8.5781c0-4.737 3.8054-8.5775 8.4998-8.5775z"/>
</g>
</g>
</g>
</svg>
