<?xml version="1.0" encoding="UTF-8"?>
<svg version="1.1" viewBox="0 0 90 90" xmlns="http://www.w3.org/2000/svg">
<g>
<g transform="translate(-951 -2187)">
<g transform="translate(-2 2103)">
<path d="m998 84c24.813 0 45 20.187 45 45s-20.187 45-45 45c-24.813 0-45-20.187-45-45s20.187-45 45-45zm0 81.818c20.302 0 36.818-16.516 36.818-36.818 0-20.302-16.516-36.818-36.818-36.818-20.302 0-36.818 16.517-36.818 36.818 0 20.302 16.516 36.818 36.818 36.818zm20.161-42.772c0.80919 0.11709 1.4809 0.68248 1.7341 1.457 0.2524 0.77532 0.04192 1.6259-0.54338 2.1955l-8.8692 8.6222 2.093 12.176c0.13835 0.80376-0.19287 1.6159-0.85364 2.0943-0.66831 0.48426-1.5454 0.53779-2.2615 0.16309l-10.96-5.7493-10.961 5.7493c-0.72366 0.37888-1.5999 0.31615-2.2607-0.16309-0.66161-0.47841-0.99283-1.2905-0.85447-2.0935l2.093-12.177-8.8684-8.6222c-0.5853-0.56874-0.79577-1.4202-0.54337-2.1947 0.2524-0.77532 0.92407-1.3407 1.7324-1.4578l12.257-1.7756 5.4815-11.077c0.36141-0.73099 1.1077-1.1935 1.9244-1.1935 0.81758 0 1.5639 0.46252 1.9253 1.1935l5.479 11.077 12.256 1.7756zm-11.616 10.036l6.4556-6.387-8.9212-1.3156c-0.68796-0.10133-1.2827-0.54014-1.5904-1.1732l-3.9875-8.2059-3.9892 8.2059c-0.30769 0.63309-0.90244 1.0719-1.5904 1.1732l-8.9212 1.3156 6.4556 6.387c0.49741 0.49324 0.72426 1.2025 0.60712 1.8976l-1.5236 9.0207 7.9792-4.2591c0.61537-0.32827 1.3504-0.32827 1.9657 0l7.9767 4.2591-1.5236-9.0207c-0.11796-0.69506 0.10971-1.4052 0.60712-1.8976z"/>
</g>
</g>
</g>
</svg>
