<svg xmlns="http://www.w3.org/2000/svg" width="265" height="190" fill-rule="evenodd"><path stroke="#000" stroke-width="10" fill="#fff" fill-rule="nonzero" stroke-linejoin="round" d="M5 5.13V185h254.617V5l-126.753.13z"/><path d="M39.164 36.05c-6.272 3.16-9.506 7.754-10.094 14.455-1.176 13.784 12.642 23.453 25.48 17.9 6.566-2.776 9.898-7.658 10.388-15.03s-1.96-12.732-7.546-16.273C51.7 33.37 45.24 32.987 39.164 36.05zM153.16 60.925c-1.415 1.02-13.035 16.415-25.97 34.156l-23.746 32.117c-.202 0-3.94-4.894-8.286-11C84.75 101.8 82.427 99.67 77.476 99.67c-3.133 0-4.75.714-7.377 3.263C66.967 106 22 167.267 22 168.5c0 .306 49.817.5 110.75.5l110.244-1.427c-.303-.816-17.48-24.674-38.196-53.12-22.837-31.3-38.904-52.508-40.824-53.63-3.94-2.447-7.68-2.447-10.812.102z" fill="#000"/></svg>