
<svg width="21px" height="20px" viewBox="0 0 21 20" version="1.1" xmlns="http://www.w3.org/2000/svg" xmlns:xlink="http://www.w3.org/1999/xlink">
    <g stroke="none">
        <g transform="translate(-35.000000, -395.000000)">
            <g transform="translate(35.000000, 395.000000)">
                <path d="M20.5045202,7.22516956 L13.7025375,6.59511918 L11.0005952,0.329065222 C10.8114313,-0.109688407 10.1885277,-0.109688407 9.99936383,0.329065222 L7.29746252,6.59516015 L0.49547979,7.22516956 C0.0192068784,7.2692866 -0.173279237,7.86091378 0.186058257,8.17616426 L5.31817369,12.6788882 L3.81626519,19.3343765 C3.71110124,19.8003705 4.21501865,20.1660053 4.62628187,19.9221122 L10.5,16.4388729 L16.3737181,19.9221122 C16.7849813,20.1660053 17.2889398,19.8003705 17.1837758,19.3343765 L15.6818263,12.6788882 L20.8139417,8.17616426 C21.1732792,7.86091378 20.9807931,7.2692866 20.5045202,7.22516956 Z"></path>
                <path d="M10.7004514,0.329065222 C10.5164487,-0.109688407 9.91054063,-0.109688407 9.72653799,0.329065222 L7.09835621,6.59516015 L0.481960961,7.22516956 C0.0186828318,7.2692866 -0.168551431,7.86091378 0.180981784,8.17616426 L5.17307093,12.6788882 L3.71214099,19.3343765 C3.60984637,19.8003705 4.10001473,20.1660053 4.50005691,19.9221122 L5.77526866,19.1446773 C5.95177077,11.6852921 9.32741342,6.43233262 12,3.42733518 L10.7004514,0.329065222 Z" id="part2"></path>
            </g>
        </g>
    </g>
</svg>