
<svg width="42px" height="39px" viewBox="0 0 42 39" version="1.1" xmlns="http://www.w3.org/2000/svg" xmlns:xlink="http://www.w3.org/1999/xlink">
    <g id="Page-1-Copy" stroke="none" stroke-width="1" fill="none" fill-rule="evenodd">
        <g id="Traveling" transform="translate(-891.000000, -1170.000000)" fill="#AAAAAA">
            <g id="list" transform="translate(50.000000, 594.000000)">
                <g id="2" transform="translate(0.000000, 363.000000)">
                    <g id="likes-and-comments" transform="translate(379.000000, 163.000000)">
                        <path d="M474.806934,79.906014 L467.368626,87.2943411 C467.033606,88.2862335 466.095449,89.000022 464.990494,89.000022 L464.509518,89.000022 C463.123538,89.000022 461.999988,87.876984 461.999988,86.490732 L461.999988,86.040912 L461.999988,75.90585 L461.999988,53.999784 C461.999988,51.790416 463.790768,49.99962 466.00001,49.99962 L500.000082,49.99962 C502.209002,49.99962 504.000104,51.790416 504.000104,53.999784 L504.000104,75.90585 C504.000104,78.11526 502.209002,79.906014 500.000082,79.906014 L474.806934,79.906014 Z M467.478174,55.441098 L467.478174,79.92987 L472.043674,74.488392 L472.956636,74.488392 L498.521596,74.488392 L498.521596,55.441098 L467.478174,55.441098 Z" id="comment"></path>
                    </g>
                </g>
            </g>
        </g>
    </g>
</svg>