
<svg width="38px" height="49px" viewBox="0 0 38 49" version="1.1" xmlns="http://www.w3.org/2000/svg" xmlns:xlink="http://www.w3.org/1999/xlink">
    <g id="Page-1-Copy" stroke="none" stroke-width="1" fill="none" fill-rule="evenodd">
        <g id="Traveling" transform="translate(-431.000000, -1885.000000)" fill="#AAAAAA">
            <g id="list" transform="translate(50.000000, 594.000000)">
                <g id="4" transform="translate(0.000000, 1083.000000)">
                    <g id="likes-and-comments" transform="translate(380.000000, 163.000000)">
                        <path d="M19.990196,44.995136 C28.755258,44.995136 38.990744,49.887608 38.990744,63.678268 C38.990744,77.044192 22.439003,92.649496 21.734459,93.306828 C21.250987,93.7585 20.620735,93.984336 19.990196,93.984336 C19.359657,93.984336 18.729446,93.7585 18.245974,93.306828 C17.54143,92.649496 0.989689,77.044192 0.989689,63.678268 C0.989689,49.887608 11.225175,44.995136 19.990196,44.995136 Z M19.988966,88.23376 C24.095977,83.986348 34.027776,72.77416 34.027776,63.678268 C34.027776,50.692412 23.283521,49.682624 19.990196,49.682624 C16.696871,49.682624 5.952657,50.692412 5.952657,63.678268 C5.952657,72.789448 15.881627,83.990612 19.988966,88.23376 Z M20.000077,57.53114 C23.279216,57.53114 25.937369,60.077164 25.937369,63.21864 C25.937369,66.360168 23.279216,68.906192 20.000077,68.906192 C16.720938,68.906192 14.062457,66.360168 14.062457,63.21864 C14.062457,60.077164 16.720938,57.53114 20.000077,57.53114 Z" id="location"></path>
                    </g>
                </g>
            </g>
        </g>
    </g>
</svg>