
<svg viewBox="0 0 20 20" version="1.1" xmlns="http://www.w3.org/2000/svg" xmlns:xlink="http://www.w3.org/1999/xlink">
    <path d="M18.7500306,8.7500873 L11.2500044,8.7500873 L11.2500044,1.24998254 C11.2500044,0.559621751 10.6903885,0 10.0000349,0 C9.30968136,0 8.75006547,0.559621751 8.75006547,1.24998254 L8.75006547,8.75001746 L1.25010912,8.75001746 C0.559755565,8.75001746 0,9.30963921 0,10 C0,10.6903608 0.559755565,11.2499825 1.25010912,11.2499825 L8.75006547,11.2499825 L8.75006547,18.7500175 C8.75006547,19.4403782 9.30968136,20 10.0000349,20 C10.6903885,20 11.2500044,19.4403782 11.2500044,18.7500175 L11.2500044,11.2499825 L18.7500306,11.2499825 C19.4403841,11.2499825 20,10.690291 20,10 C20.0000698,9.30970905 19.4403841,8.7500873 18.7500306,8.7500873 Z"></path>
</svg>